<?xml version="1.0" encoding="UTF-8"?>
<svg width="14px" height="14px" viewBox="0 0 14 14" version="1.1" xmlns="http://www.w3.org/2000/svg" xmlns:xlink="http://www.w3.org/1999/xlink">
    <!-- Generator: Sketch 64 (93537) - https://sketch.com -->
    <title>clock (1)</title>
    <desc>Created with Sketch.</desc>
    <g id="Up4me-" stroke="none" stroke-width="1" fill="none" fill-rule="evenodd">
        <g id="10.-Date-overzicht" transform="translate(-20.000000, -403.000000)" fill="#4A4A4A">
            <g id="clock-(1)" transform="translate(20.000000, 403.000000)">
                <path d="M6.98886937,0 C3.13527477,0 0,3.13527477 0,6.98886937 C0,10.842464 3.13527477,13.9777387 6.98886937,13.9777387 C10.842464,13.9777387 13.9777387,10.842464 13.9777387,6.98886937 C13.9777387,3.13527477 10.842464,0 6.98886937,0 Z M6.98886937,13.1041261 C3.61685586,13.1041261 0.873612613,10.3608829 0.873612613,6.98886937 C0.873612613,3.61685586 3.61685586,0.873612613 6.98886937,0.873612613 C10.3608829,0.873612613 13.1041261,3.61685586 13.1041261,6.98886937 C13.1041261,10.3608829 10.3608829,13.1041261 6.98886937,13.1041261 Z" id="Shape" fill-rule="nonzero"></path>
                <polygon id="Path" points="6.70694595 2.33333333 5.83333333 2.33333333 5.83333333 6.88222973 8.58212613 9.63102252 9.1997973 9.01335135 6.70694595 6.5205"></polygon>
            </g>
        </g>
    </g>
</svg>