<?xml version="1.0" encoding="UTF-8"?>
<svg width="12px" height="10px" viewBox="0 0 12 10" version="1.1" xmlns="http://www.w3.org/2000/svg" xmlns:xlink="http://www.w3.org/1999/xlink">
    <!-- Generator: Sketch 64 (93537) - https://sketch.com -->
    <title>navigate</title>
    <desc>Created with Sketch.</desc>
    <g id="Up4me-" stroke="none" stroke-width="1" fill="none" fill-rule="evenodd">
        <g id="3.-Home" transform="translate(-148.000000, -543.000000)" fill="#000000" fill-rule="nonzero">
            <g id="navigate" transform="translate(148.000000, 543.000000)">
                <path d="M0.122428571,2.99666667 L4.47925,5.27386667 L5.55660714,9.8283 C5.57561626,9.90864839 5.64541111,9.96993095 5.73249785,9.98273881 C5.81958459,9.99554668 5.9061888,9.95726575 5.95075,9.88626667 L11.9552857,0.32 C11.9731285,0.292963903 11.9838276,0.262355361 11.9865,0.2307 L11.9865,0.2307 C11.9904559,0.184136053 11.9767806,0.137752781 11.9478571,0.0996333333 L11.9448571,0.0957666667 C11.9437857,0.0944333333 11.9427143,0.0931333333 11.9416071,0.0918333333 C11.9107346,0.0548470536 11.8668554,0.0292287191 11.8177143,0.0195 C11.8046737,0.0168954113 11.7914028,0.0154224675 11.7780714,0.0150143139 L11.7780714,0.0150143139 C11.7577691,0.0145333087 11.737489,0.0167799708 11.7178929,0.0217666667 L0.176714286,2.6278 C0.0910697442,2.64716057 0.0268558117,2.71348278 0.0148643346,2.79496382 C0.00287285752,2.87644485 0.0455489448,2.95647041 0.122428571,2.99666667 Z M5.85714286,9.24386667 L4.90714286,5.22646667 L11.0560357,0.961233333 L5.85714286,9.24386667 Z M10.8003571,0.640233333 L4.65139286,4.90536667 L0.808285714,2.89666667 L10.8003571,0.640233333 Z" id="Shape"></path>
            </g>
        </g>
    </g>
</svg>