<?xml version="1.0" encoding="UTF-8"?>
<svg width="16px" height="12px" viewBox="0 0 16 12" version="1.1" xmlns="http://www.w3.org/2000/svg" xmlns:xlink="http://www.w3.org/1999/xlink">
    <!-- Generator: Sketch 64 (93537) - https://sketch.com -->
    <title>email</title>
    <desc>Created with Sketch.</desc>
    <g id="Up4me-" stroke="none" stroke-width="1" fill="none" fill-rule="evenodd">
        <g id="4.3.4A-Instellingen---Help-&amp;-FAQ" transform="translate(-20.000000, -911.000000)" fill="#000000" fill-rule="nonzero">
            <g id="email" transform="translate(20.000000, 911.000000)">
                <path d="M14.4715333,0.0293185596 L1.49706667,0.0293185596 C0.671533333,0.0293185596 2.84217094e-14,0.69899169 2.84217094e-14,1.52223823 L2.84217094e-14,10.4796898 C2.84217094e-14,11.3029363 0.671533333,11.9726094 1.49706667,11.9726094 L14.4715333,11.9726094 C15.2970667,11.9726094 15.9686,11.3029363 15.9686,10.4796898 L15.9686,1.52223823 C15.9686,0.69899169 15.2970667,0.0293185596 14.4715333,0.0293185596 Z M14.4715333,1.02458726 C14.5393333,1.02458726 14.6038333,1.03861496 14.6628,1.06311357 L7.9843,6.8353795 L1.30576667,1.06311357 C1.36473333,1.0386482 1.42923333,1.02458726 1.49703333,1.02458726 L14.4715333,1.02458726 Z M14.4715333,10.9773075 L1.49706667,10.9773075 C1.22173333,10.9773075 0.998033333,10.7542604 0.998033333,10.4796565 L0.998033333,2.11462604 L7.6573,7.87000554 C7.75136667,7.95114681 7.86783333,7.99150139 7.9843,7.99150139 C8.10076667,7.99150139 8.21723333,7.95118006 8.3113,7.87000554 L14.9705667,2.11462604 L14.9705667,10.4796898 C14.9705667,10.7542604 14.7468667,10.9773075 14.4715333,10.9773075 L14.4715333,10.9773075 Z" id="Shape"></path>
            </g>
        </g>
    </g>
</svg>