<?xml version="1.0" encoding="UTF-8"?>
<svg width="18px" height="18px" viewBox="0 0 18 18" version="1.1" xmlns="http://www.w3.org/2000/svg" xmlns:xlink="http://www.w3.org/1999/xlink">
    <!-- Generator: Sketch 64 (93537) - https://sketch.com -->
    <title>levels</title>
    <desc>Created with Sketch.</desc>
    <g id="Symbols" stroke="none" stroke-width="1" fill="none" fill-rule="evenodd">
        <g id="Filter-grijs" fill="#D8D8D8" fill-rule="nonzero">
            <g id="levels" transform="translate(9.000000, 9.000000) rotate(-90.000000) translate(-9.000000, -9.000000) ">
                <path d="M2.99998828,1.62847266 L2.99998828,0.749988281 C2.99998828,0.335777344 2.66421094,0 2.25,0 C1.83578906,0 1.50001172,0.335777344 1.50001172,0.749988281 L1.50001172,1.6284375 C0.6260625,1.93728516 0,2.77010156 0,3.75001172 L0,6.00001172 C0,6.97988672 0.6260625,7.81273828 1.50001172,8.12155078 L1.50001172,17.2500117 C1.50001172,17.6642227 1.83578906,18 2.25,18 C2.66421094,18 2.99998828,17.6642227 2.99998828,17.2500117 L2.99998828,8.12155078 C3.8739375,7.81270313 4.5,6.97988672 4.5,6.00001172 L4.5,3.75001172 C4.5,2.77010156 3.8739375,1.93728516 2.99998828,1.62847266 Z M2.99998828,6.00001172 C2.99998828,6.41453906 2.66452734,6.75 2.25,6.75 C1.83547266,6.75 1.50001172,6.41453906 1.50001172,6.00001172 L1.50001172,3.75001172 C1.50001172,3.33548438 1.83547266,3.00002344 2.25,3.00002344 C2.66452734,3.00002344 2.99998828,3.33548438 2.99998828,3.75001172 L2.99998828,6.00001172 Z" id="Shape"></path>
                <path d="M9.74998828,3.87847266 L9.74998828,0.749988281 C9.74998828,0.335777344 9.41421094,0 9,0 C8.58578906,0 8.25001172,0.335777344 8.25001172,0.749988281 L8.25001172,3.8784375 C7.3760625,4.18728516 6.75,5.02010156 6.75,6.00001172 L6.75,8.25001172 C6.75,9.22988672 7.3760625,10.0627383 8.25001172,10.3715508 L8.25001172,17.2500117 C8.25001172,17.6642227 8.58578906,18 9,18 C9.41421094,18 9.74998828,17.6642227 9.74998828,17.2500117 L9.74998828,10.3715508 C10.6239375,10.0627031 11.25,9.22988672 11.25,8.25001172 L11.25,6.00001172 C11.25,5.02010156 10.6239375,4.18728516 9.74998828,3.87847266 Z M9.74998828,8.25001172 C9.74998828,8.66453906 9.41452734,9 9,9 C8.58547266,9 8.25001172,8.66453906 8.25001172,8.25001172 L8.25001172,6.00001172 C8.25001172,5.58548438 8.58547266,5.25002344 9,5.25002344 C9.41452734,5.25002344 9.74998828,5.58548438 9.74998828,6.00001172 L9.74998828,8.25001172 L9.74998828,8.25001172 Z" id="Shape"></path>
                <path d="M16.4999883,9.87844922 L16.4999883,0.749988281 C16.4999883,0.335777344 16.1642109,0 15.75,0 C15.3357891,0 15.0000117,0.335777344 15.0000117,0.749988281 L15.0000117,9.87844922 C14.1260625,10.1872969 13.5,11.0201133 13.5,11.9999883 L13.5,14.2499883 C13.5,15.2298633 14.1260625,16.0627148 15.0000117,16.3715273 L15.0000117,17.2499766 C15.0000117,17.6641875 15.3357891,17.9999648 15.75,17.9999648 C16.1642109,17.9999648 16.4999883,17.6641875 16.4999883,17.2499766 L16.4999883,16.3715273 C17.3739375,16.0627148 18,15.2298984 18,14.2499883 L18,11.9999883 C18,11.0201133 17.3739375,10.1872969 16.4999883,9.87844922 Z M16.4999883,14.2499883 C16.4999883,14.6645156 16.1645273,14.9999766 15.75,14.9999766 C15.3354727,14.9999766 15.0000117,14.6645156 15.0000117,14.2499883 L15.0000117,11.9999883 C15.0000117,11.5854609 15.3354727,11.25 15.75,11.25 C16.1645273,11.25 16.4999883,11.5854609 16.4999883,11.9999883 L16.4999883,14.2499883 L16.4999883,14.2499883 Z" id="Shape"></path>
            </g>
        </g>
    </g>
</svg>