<?xml version="1.0" encoding="UTF-8"?>
<svg width="30px" height="30px" viewBox="0 0 30 30" version="1.1" xmlns="http://www.w3.org/2000/svg" xmlns:xlink="http://www.w3.org/1999/xlink">
    <!-- Generator: Sketch 64 (93537) - https://sketch.com -->
    <title>Group 3</title>
    <desc>Created with Sketch.</desc>
    <g id="Up4me-" stroke="none" stroke-width="1" fill="none" fill-rule="evenodd">
        <g id="10.-Date-overzicht" transform="translate(-270.000000, -11.000000)">
            <g id="Group-3" transform="translate(270.000000, 11.000000)">
                <circle id="Oval-Copy-3" fill="#FF556A" cx="15" cy="15" r="15"></circle>
                <path d="M21.2335285,12.9063407 L21.2343252,12.9063407 L16.0937073,12.9063407 L16.0937073,7.7753559 C16.0937073,7.35307604 15.7517886,7 15.3295122,7 L14.6717398,7 C14.2495772,7 13.9061789,7.35307604 13.9061789,7.7753559 L13.9061789,12.9063407 L8.7656748,12.9063407 C8.34362602,12.9063407 8,13.2478069 8,13.6702006 L8,14.3317344 C8,14.7537866 8.3435122,15.0937731 8.7656748,15.0937731 L13.9062927,15.0937731 L13.9062927,20.2433109 C13.9062927,20.6653631 14.2495772,21 14.6718537,21 L15.329626,21 C15.7519024,21 16.0938211,20.6652493 16.0938211,20.2433109 L16.0938211,15.0937731 L21.2335285,15.0937731 C21.6558049,15.0937731 22,14.7536728 22,14.3317344 L22,13.6702006 C22,13.2478069 21.6558049,12.9063407 21.2335285,12.9063407 Z" id="Path" fill="#FFFFFF" transform="translate(15.000000, 14.000000) rotate(-45.000000) translate(-15.000000, -14.000000) "></path>
            </g>
        </g>
    </g>
</svg>