<?xml version="1.0" encoding="UTF-8"?>
<svg width="17px" height="20px" viewBox="0 0 17 20" version="1.1" xmlns="http://www.w3.org/2000/svg" xmlns:xlink="http://www.w3.org/1999/xlink">
    <!-- Generator: Sketch 64 (93537) - https://sketch.com -->
    <title>Combined Shape</title>
    <desc>Created with Sketch.</desc>
    <defs>
        <linearGradient x1="99.651147%" y1="49.651147%" x2="0.348852962%" y2="49.651147%" id="linearGradient-1">
            <stop stop-color="#FEA15A" offset="0%"></stop>
            <stop stop-color="#D100A3" offset="100%"></stop>
        </linearGradient>
    </defs>
    <g id="Symbols" stroke="none" stroke-width="1" fill="none" fill-rule="evenodd">
        <g id="Profile" fill="url(#linearGradient-1)">
            <path d="M8.50223684,0 C10.7259097,0 12.5285526,1.93634284 12.5285526,4.32494279 C12.5285526,5.88839003 11.7562467,7.25807687 10.5990763,8.01782597 C12.0734815,8.48831495 13.4117458,9.46029347 14.4878196,10.8651977 C16.0659164,12.9261315 16.9535082,15.7726377 16.9979868,18.9031471 C16.1712451,19.3948993 12.7358651,19.5339034 8.50011184,19.5339034 L8.11747157,19.5334846 C4.06235518,19.524494 0.86672527,19.3689393 0.00223684211,18.8931178 C0.0485988975,15.7664821 0.935611265,12.9239558 2.51221091,10.8651977 C3.58901163,9.45934443 4.92835716,8.48700196 6.40382673,8.01533512 C5.24733332,7.25649152 4.47592105,5.88748526 4.47592105,4.32494279 C4.47592105,1.93634284 6.27856403,0 8.50223684,0 Z" id="Combined-Shape"></path>
        </g>
    </g>
</svg>