<?xml version="1.0" encoding="UTF-8"?>
<svg width="14px" height="14px" viewBox="0 0 14 14" version="1.1" xmlns="http://www.w3.org/2000/svg" xmlns:xlink="http://www.w3.org/1999/xlink">
    <!-- Generator: Sketch 64 (93537) - https://sketch.com -->
    <title>ruler</title>
    <desc>Created with Sketch.</desc>
    <g id="Up4me-" stroke="none" stroke-width="1" fill="none" fill-rule="evenodd">
        <g id="3.-Home" transform="translate(-21.000000, -539.000000)" fill="#000000">
            <g id="ruler" transform="translate(21.000000, 539.000000)">
                <path d="M13.9318285,2.8846537 L11.1371501,0.095385214 C11.0460819,0.00449416342 10.8989045,0.00449416342 10.8078363,0.095385214 L0.0955711501,10.7868093 C0.00450292398,10.8777004 0.00450292398,11.0245914 0.0955711501,11.1154825 L2.89024951,13.9047237 C2.93380507,13.9484125 2.99318908,13.9728171 3.05489279,13.9728171 C3.11659649,13.9728171 3.17576218,13.9484125 3.21953606,13.9047237 L13.9317739,3.21332685 C13.9755478,3.16985603 14.0000001,3.11058755 14.0000001,3.04900389 C14.0000001,2.987393 13.9756023,2.92834241 13.9318285,2.8846537 Z M3.05492008,13.4117276 L0.589555556,10.9511595 L10.9724795,0.58840856 L13.4378441,3.04897665 L3.05492008,13.4117276 Z" id="Shape" fill-rule="nonzero"></path>
                <path d="M11.2063041,2.11898444 C10.8210994,2.11898444 10.5076413,2.43183268 10.5076413,2.81628794 C10.5076413,3.20074319 10.8210994,3.51359144 11.2063041,3.51359144 C11.5915088,3.51359144 11.9049669,3.20074319 11.9049669,2.81628794 C11.9049669,2.43185992 11.5915088,2.11898444 11.2063041,2.11898444 Z M11.2063041,3.04873152 C11.0777388,3.04873152 10.9734074,2.94435798 10.9734074,2.81628794 C10.9734074,2.6882179 11.0777388,2.58384436 11.2063041,2.58384436 C11.3348694,2.58384436 11.4392008,2.6882179 11.4392008,2.81628794 C11.4392008,2.94438521 11.3348694,3.04873152 11.2063041,3.04873152 Z" id="Shape" fill-rule="nonzero"></path>
                <polygon id="Rectangle" transform="translate(9.226583, 2.700234) rotate(-45.000000) translate(-9.226583, -2.700234) " points="8.993448 2.20642643 9.45875654 2.2068795 9.45971775 3.19404137 8.99440921 3.19358829"></polygon>
                <polygon id="Rectangle" transform="translate(8.644230, 3.513807) rotate(-45.000000) translate(-8.644230, -3.513807) " points="8.41093506 2.85550407 8.8762436 2.85595714 8.87752515 4.17210935 8.41221661 4.17165627"></polygon>
                <polygon id="Rectangle" transform="translate(7.829264, 4.094665) rotate(-45.000000) translate(-7.829264, -4.094665) " points="7.59612949 3.60085709 8.06143803 3.60131017 8.06239924 4.58847203 7.5970907 4.58801896"></polygon>
                <polygon id="Rectangle" transform="translate(7.246885, 4.908018) rotate(-45.000000) translate(-7.246885, -4.908018) " points="7.01359005 4.24971528 7.47889859 4.25016836 7.48018014 5.56632057 7.0148716 5.56586749"></polygon>
                <polygon id="Rectangle" transform="translate(6.431916, 5.489098) rotate(-45.000000) translate(-6.431916, -5.489098) " points="6.19878076 4.99529067 6.6640893 4.99574375 6.66505051 5.98290562 6.19974197 5.98245254"></polygon>
                <polygon id="Rectangle" transform="translate(5.849561, 6.302430) rotate(-45.000000) translate(-5.849561, -6.302430) " points="5.61626608 5.64412688 6.08157462 5.64457996 6.08285617 6.96073217 5.61754763 6.96027909"></polygon>
                <polygon id="Rectangle" transform="translate(5.034439, 6.883167) rotate(-45.008103) translate(-5.034439, -6.883167) " points="4.80130401 6.38946865 5.26661242 6.38992173 5.26757342 7.37686577 4.802265 7.37641269"></polygon>
                <polygon id="Rectangle" transform="translate(4.452216, 7.697324) rotate(-45.000000) translate(-4.452216, -7.697324) " points="4.21892065 7.03902134 4.68422919 7.03947441 4.68551074 8.35562662 4.2202022 8.35517355"></polygon>
                <polygon id="Rectangle" transform="translate(3.637232, 8.278341) rotate(-45.000000) translate(-3.637232, -8.278341) " points="3.40409752 7.78453389 3.86940606 7.78498696 3.87036727 8.77214883 3.40505873 8.77169575"></polygon>
                <polygon id="Rectangle" transform="translate(3.054891, 9.091936) rotate(-45.000000) translate(-3.054891, -9.091936) " points="2.8215955 8.43363331 3.28690404 8.43408639 3.28818559 9.7502386 2.82287705 9.74978552"></polygon>
                <polygon id="Rectangle" transform="translate(2.240401, 9.673246) rotate(-45.000000) translate(-2.240401, -9.673246) " points="2.0072663 9.17943848 2.47257484 9.17989156 2.47353605 10.1670534 2.00822751 10.1666003"></polygon>
                <polygon id="Rectangle" transform="translate(1.657511, 10.486633) rotate(-45.000000) translate(-1.657511, -10.486633) " points="1.42421558 9.82832992 1.88952412 9.828783 1.89080567 11.1449352 1.42549713 11.1444821"></polygon>
            </g>
        </g>
    </g>
</svg>