<?xml version="1.0" encoding="UTF-8"?>
<svg width="16px" height="16px" viewBox="0 0 16 16" version="1.1" xmlns="http://www.w3.org/2000/svg" xmlns:xlink="http://www.w3.org/1999/xlink">
    <!-- Generator: Sketch 64 (93537) - https://sketch.com -->
    <title>search</title>
    <desc>Created with Sketch.</desc>
    <g id="Up4me-" stroke="none" stroke-width="1" fill="none" fill-rule="evenodd">
        <g id="2.3-Gegevens---Locatie-selecteren" transform="translate(-269.000000, -121.000000)" fill="#A2A2A2" fill-rule="nonzero">
            <g id="search" transform="translate(269.000000, 121.000000)">
                <path d="M15.9023552,14.9596615 L11.2544677,10.3117752 C12.1360326,9.22342877 12.6666903,7.83980039 12.6666903,6.33335921 C12.6666903,2.84116319 9.82552639,0 6.33332951,0 C2.84113263,0 0,2.84116319 0,6.33335921 C0,9.82555524 2.84116388,12.6667184 6.33336076,12.6667184 C7.8398023,12.6667184 9.22343102,12.1360296 10.3117777,11.2544962 L14.9596652,15.9023826 C15.0898843,16.0325391 15.3008848,16.0325391 15.4311039,15.9023826 L15.9023865,15.4310689 C16.0325431,15.3008811 16.0325431,15.0898181 15.9023552,14.9596615 Z M6.33336076,11.3333714 C3.5761971,11.3333714 1.33334733,9.09052219 1.33334733,6.33335921 C1.33334733,3.57619623 3.5761971,1.33334701 6.33336076,1.33334701 C9.09052441,1.33334701 11.3333742,3.57619623 11.3333742,6.33335921 C11.3333742,9.09052219 9.09052441,11.3333714 6.33336076,11.3333714 Z" id="Shape"></path>
            </g>
        </g>
    </g>
</svg>