<?xml version="1.0" encoding="UTF-8"?>
<svg width="17px" height="15px" viewBox="0 0 17 15" version="1.1" xmlns="http://www.w3.org/2000/svg" xmlns:xlink="http://www.w3.org/1999/xlink">
    <!-- Generator: Sketch 64 (93537) - https://sketch.com -->
    <title>Path</title>
    <desc>Created with Sketch.</desc>
    <g id="Up4me-" stroke="none" stroke-width="1" fill="none" fill-rule="evenodd">
        <g id="10.-Date-overzicht" transform="translate(-127.000000, -18.000000)" stroke="#4A4A4A">
            <g id="Group-2" transform="translate(128.000000, 15.000000)">
                <path d="M11.015625,4 C10.2016699,4 9.45541992,4.25321239 8.79764648,4.75261947 C8.16703125,5.23140487 7.74717773,5.84122566 7.5,6.28466372 C7.25282227,5.8411969 6.83296875,5.23140487 6.20235352,4.75261947 C5.54458008,4.25321239 4.79833008,4 3.984375,4 C1.71292969,4 0,5.82394027 0,8.24265929 C0,10.8557168 2.13700195,12.6435332 5.37213867,15.3500354 C5.92151367,15.8096659 6.54421875,16.3306438 7.19144531,16.8862788 C7.27675781,16.9596195 7.38632813,17 7.5,17 C7.61367187,17 7.72324219,16.9596195 7.80855469,16.8863075 C8.45583984,16.3305863 9.07851562,15.8096372 9.62821289,15.3497478 C12.862998,12.6435332 15,10.8557168 15,8.24265929 C15,5.82394027 13.2870703,4 11.015625,4 Z" id="Path"></path>
            </g>
        </g>
    </g>
</svg>