<?xml version="1.0" encoding="UTF-8"?>
<svg width="12px" height="14px" viewBox="0 0 12 14" version="1.1" xmlns="http://www.w3.org/2000/svg" xmlns:xlink="http://www.w3.org/1999/xlink">
    <!-- Generator: Sketch 64 (93537) - https://sketch.com -->
    <title>Locatie profiel</title>
    <desc>Created with Sketch.</desc>
    <g id="Up4me-" stroke="none" stroke-width="1" fill="none" fill-rule="evenodd">
        <g id="3.-Home" transform="translate(-20.000000, -466.000000)" stroke="#FFFFFF">
            <g id="Group-3" transform="translate(20.000000, 434.000000)">
                <g id="Locatie-profiel" transform="translate(1.000000, 33.000000)">
                    <g id="Group-5-Copy">
                        <g id="Group-4" stroke-width="0.718848">
                            <path d="M5,-7.10542736e-15 C7.76150943,-7.10542736e-15 10,2.13115705 10,4.76025472 C10,6.51298649 8.33333333,9.25956825 5,13 C1.66666667,9.25956825 -2.13162821e-14,6.51298649 -2.13162821e-14,4.76025472 C-2.13162821e-14,2.13115705 2.23849057,-7.10542736e-15 5,-7.10542736e-15 Z M5.01448041,2.21091239 C3.73196139,2.21091239 2.69227431,3.20074746 2.69227431,4.4217709 C2.69227431,5.64279433 3.73196139,6.6326294 5.01448041,6.6326294 C6.29699942,6.6326294 7.3366865,5.64279433 7.3366865,4.4217709 C7.3366865,3.20074746 6.29699942,2.21091239 5.01448041,2.21091239 Z" id="Combined-Shape"></path>
                        </g>
                    </g>
                </g>
            </g>
        </g>
    </g>
</svg>