<?xml version="1.0" encoding="UTF-8"?>
<svg width="13px" height="12px" viewBox="0 0 13 12" version="1.1" xmlns="http://www.w3.org/2000/svg" xmlns:xlink="http://www.w3.org/1999/xlink">
    <!-- Generator: Sketch 64 (93537) - https://sketch.com -->
    <title>work</title>
    <desc>Created with Sketch.</desc>
    <g id="Up4me-" stroke="none" stroke-width="1" fill="none" fill-rule="evenodd">
        <g id="3.-Home" transform="translate(-20.000000, -490.000000)" fill="#FFFFFF" fill-rule="nonzero">
            <g id="Group-3" transform="translate(20.000000, 434.000000)">
                <g id="work" transform="translate(0.000000, 56.000000)">
                    <path d="M12.621521,1.60010416 C12.6207275,1.60010416 12.6199341,1.6 12.6191406,1.6 L9.16601562,1.6 L9.16601562,1.2 C9.16601562,0.538333333 8.65344238,0 8.0234375,0 L4.9765625,0 C4.34655762,0 3.83398438,0.538333333 3.83398438,1.2 L3.83398438,1.6 L0.380859375,1.6 C0.168807996,1.6 0,1.7825 0,2 L0,10.8 C0,11.4616667 0.512573242,12 1.14257812,12 L11.8574219,12 C12.4874268,12 13,11.4616667 13,10.8 L13,2.00843749 C13,2.00791667 13,2.00739584 13,2.00687499 C12.9854202,1.74416667 12.8315888,1.60156251 12.621521,1.60010416 Z M4.59570312,1.2 C4.59570312,0.979479173 4.76659394,0.8 4.9765625,0.8 L8.0234375,0.8 C8.23340606,0.8 8.40429687,0.979479173 8.40429687,1.2 L8.40429687,1.6 L4.59570312,1.6 L4.59570312,1.2 Z M12.0906982,2.4 L10.9079514,6.12645835 C10.8560791,6.29010416 10.7108765,6.4 10.54673,6.4 L8.40429688,6.4 L8.40429688,6 C8.40429688,5.77906251 8.23380279,5.6 8.0234375,5.6 L4.9765625,5.6 C4.76619721,5.6 4.59570312,5.77906251 4.59570312,6 L4.59570312,6.4 L2.45326996,6.4 C2.28912354,6.4 2.1439209,6.29010416 2.09204864,6.12645835 L0.909301758,2.4 L12.0906982,2.4 Z M7.64257812,6.4 L7.64257812,7.2 L5.35742188,7.2 L5.35742188,6.4 L7.64257812,6.4 Z M12.2382812,10.8 C12.2382812,11.0205208 12.0673904,11.2 11.8574219,11.2 L1.14257812,11.2 C0.932609564,11.2 0.76171875,11.0205208 0.76171875,10.8 L0.76171875,4.46489584 L1.36940766,6.37947917 C1.52512359,6.87031251 1.9607315,7.2 2.45326996,7.2 L4.59570312,7.2 L4.59570312,7.6 C4.59570312,7.82093749 4.76619721,8 4.9765625,8 L8.0234375,8 C8.23380279,8 8.40429688,7.82093749 8.40429688,7.6 L8.40429688,7.2 L10.54673,7.2 C11.0392685,7.2 11.4748764,6.87031251 11.6305923,6.37947917 L12.2382812,4.46489584 L12.2382812,10.8 Z" id="Shape"></path>
                </g>
            </g>
        </g>
    </g>
</svg>