<?xml version="1.0" encoding="UTF-8"?>
<svg width="13px" height="12px" viewBox="0 0 13 12" version="1.1" xmlns="http://www.w3.org/2000/svg" xmlns:xlink="http://www.w3.org/1999/xlink">
    <!-- Generator: Sketch 64 (93537) - https://sketch.com -->
    <title>star copy 5</title>
    <desc>Created with Sketch.</desc>
    <g id="Up4me-" stroke="none" stroke-width="1" fill="none" fill-rule="evenodd">
        <g id="9.2-Date-plannen---Locaties-West" transform="translate(-112.000000, -294.000000)" fill="#FFC107">
            <g id="star-copy-5" transform="translate(112.000000, 294.000000)">
                <path d="M12.9660861,4.53465599 C12.8809858,4.28110121 12.6475056,4.10101427 12.3712769,4.07703452 L8.6191285,3.7488655 L7.13542806,0.403834194 C7.02602761,0.158686681 6.77687623,0 6.50005238,0 C6.22322853,0 5.97407715,0.158686681 5.86467667,0.404407427 L4.38097623,3.7488655 L0.628232778,4.07703452 C0.352499936,4.10158748 0.119614833,4.28110121 0.0340186324,4.53465599 C-0.0515775687,4.78821074 0.0274724449,5.06631848 0.236057385,5.24162858 L3.07223721,7.63750138 L2.23591379,11.1860261 C2.17471698,11.4469373 2.27985249,11.7166378 2.5046045,11.8731271 C2.6254112,11.9571995 2.76674906,12 2.90927713,12 C3.03216669,12 3.15406439,11.9680907 3.26346487,11.9050364 L6.50005238,10.0417814 L9.73544968,11.9050364 C9.97220301,12.0422273 10.2706491,12.029712 10.4949051,11.8731271 C10.7197563,11.71616 10.8247927,11.446364 10.7635958,11.1860261 L9.92727243,7.63750138 L12.7634523,5.24210626 C12.9720372,5.06631848 13.0516823,4.78868842 12.9660861,4.53465599 Z" id="Path"></path>
            </g>
        </g>
    </g>
</svg>