<?xml version="1.0" encoding="UTF-8"?>
<svg width="51px" height="16px" viewBox="0 0 51 16" version="1.1" xmlns="http://www.w3.org/2000/svg" xmlns:xlink="http://www.w3.org/1999/xlink">
    <!-- Generator: Sketch 64 (93537) - https://sketch.com -->
    <title>Up4Me</title>
    <desc>Created with Sketch.</desc>
    <defs>
        <linearGradient x1="99.651147%" y1="49.651147%" x2="0.348852962%" y2="49.651147%" id="linearGradient-1">
            <stop stop-color="#FEA15A" offset="0%"></stop>
            <stop stop-color="#D100A3" offset="100%"></stop>
        </linearGradient>
    </defs>
    <g id="Symbols" stroke="none" stroke-width="1" fill="none" fill-rule="evenodd">
        <g id="Logo" transform="translate(-1.000000, -4.000000)" fill="url(#linearGradient-1)">
            <path d="M9.22136,4.93121 C9.40031423,4.93121 9.54768609,4.99436937 9.66348,5.12069 C9.77927391,5.24701063 9.83717,5.39964577 9.83717,5.5786 L9.83717,11.84723 C9.83717,12.6577874 9.65032354,13.3841201 9.276625,14.02625 C8.90292646,14.6683799 8.40028316,15.1789181 7.76868,15.55788 C7.13707684,15.9368419 6.42127067,16.12632 5.62124,16.12632 C4.81068261,16.12632 4.08698152,15.9368419 3.450115,15.55788 C2.81324848,15.1789181 2.31060518,14.6683799 1.94217,14.02625 C1.57373482,13.3841201 1.38952,12.6577874 1.38952,11.84723 L1.38952,5.5786 C1.38952,5.39964577 1.45004773,5.24701063 1.571105,5.12069 C1.69216227,4.99436937 1.85269233,4.93121 2.0527,4.93121 C2.22112751,4.93121 2.37113101,4.99436937 2.502715,5.12069 C2.63429899,5.24701063 2.70009,5.39964577 2.70009,5.5786 L2.70009,11.84723 C2.70009,12.4261996 2.83167202,12.9420011 3.09484,13.39465 C3.35800798,13.8472989 3.71327943,14.2025704 4.160665,14.460475 C4.60805057,14.7183796 5.09490403,14.84733 5.62124,14.84733 C6.15810268,14.84733 6.65285107,14.7183796 7.1055,14.460475 C7.55814893,14.2025704 7.92394694,13.8472989 8.202905,13.39465 C8.48186306,12.9420011 8.62134,12.4261996 8.62134,11.84723 L8.62134,5.5786 C8.62134,5.39964577 8.67397281,5.24701063 8.77924,5.12069 C8.88450719,4.99436937 9.03187905,4.93121 9.22136,4.93121 Z M13.64256,14.7227847 L13.64256,18.5264 C13.64256,18.7053542 13.5846639,18.8553577 13.46887,18.976415 C13.3530761,19.0974723 13.2004409,19.158 13.01096,19.158 C12.8320058,19.158 12.6820023,19.0974723 12.560945,18.976415 C12.4398877,18.8553577 12.37936,18.7053542 12.37936,18.5264 L12.37936,8.4208 C12.37936,8.24184577 12.4398877,8.09184227 12.560945,7.970785 C12.6820023,7.84972773 12.8320058,7.7892 13.01096,7.7892 C13.2004409,7.7892 13.3530761,7.84972773 13.46887,7.970785 C13.5846639,8.09184227 13.64256,8.24184577 13.64256,8.4208 L13.64256,9.1611868 C13.687651,9.08714606 13.7376526,9.01404053 13.792565,8.94187 C13.9767826,8.69975546 14.2031037,8.48659259 14.471535,8.302375 C14.7399663,8.11815741 15.0399733,7.97341719 15.371565,7.86815 C15.7031567,7.76288281 16.0479015,7.71025 16.40581,7.71025 C17.1216269,7.71025 17.7637472,7.88920154 18.33219,8.24711 C18.9006328,8.60501846 19.3506433,9.09976684 19.682235,9.73137 C20.0138267,10.3629732 20.17962,11.0893059 20.17962,11.91039 C20.17962,12.7209474 20.0138267,13.4446485 19.682235,14.081515 C19.3506433,14.7183815 18.9032645,15.2183932 18.340085,15.581565 C17.7769055,15.9447368 17.1426802,16.12632 16.43739,16.12632 C16.0479014,16.12632 15.6821034,16.0657923 15.339985,15.944735 C14.9978666,15.8236777 14.6873331,15.6657793 14.408375,15.471035 C14.1294169,15.2762907 13.8952009,15.0552329 13.70572,14.807855 C13.6839733,14.7794635 13.66292,14.7511068 13.64256,14.7227847 L13.64256,14.7227847 Z M16.2637,8.87871 C15.737364,8.87871 15.2715637,9.01029202 14.866285,9.27346 C14.4610063,9.53662798 14.1452095,9.89453107 13.918885,10.34718 C13.6925605,10.7998289 13.5794,11.3208937 13.5794,11.91039 C13.5794,12.4893596 13.6925605,13.0104244 13.918885,13.4736 C14.1452095,13.9367756 14.4610063,14.299942 14.866285,14.56311 C15.2715637,14.826278 15.737364,14.95786 16.2637,14.95786 C16.790036,14.95786 17.2532047,14.826278 17.65322,14.56311 C18.0532353,14.299942 18.3690322,13.9367756 18.60062,13.4736 C18.8322078,13.0104244 18.948,12.4893596 18.948,11.91039 C18.948,11.3208937 18.8322078,10.7998289 18.60062,10.34718 C18.3690322,9.89453107 18.0532353,9.53662798 17.65322,9.27346 C17.2532047,9.01029202 16.790036,8.87871 16.2637,8.87871 Z M26.74826,11.54722 L26.74826,7.14002619 L23.3722365,11.54722 L26.74826,11.54722 L26.74826,11.54722 Z M28.01146,11.54722 L28.94307,11.54722 C29.1114975,11.54722 29.2536061,11.6051161 29.3694,11.72091 C29.4851939,11.8367039 29.54309,11.9788125 29.54309,12.14724 C29.54309,12.3051408 29.4851939,12.4393544 29.3694,12.549885 C29.2536061,12.6604156 29.1114975,12.71568 28.94307,12.71568 L28.01146,12.71568 L28.01146,15.35261 C28.01146,15.5315642 27.9509323,15.6841994 27.829875,15.81052 C27.7088177,15.9368406 27.5588142,16 27.37986,16 C27.2009058,16 27.0509023,15.9368406 26.929845,15.81052 C26.8087877,15.6841994 26.74826,15.5315642 26.74826,15.35261 L26.74826,12.71568 L22.29548,12.71568 C22.1375792,12.71568 21.992839,12.6525206 21.861255,12.5262 C21.729671,12.3998794 21.66388,12.2525075 21.66388,12.08408 C21.66388,11.9261792 21.7165128,11.7893339 21.82178,11.67354 L26.85879,5.19964 C26.932477,5.10489953 27.0166895,5.03910852 27.11143,5.002265 C27.2061705,4.96542148 27.3009095,4.947 27.39565,4.947 C27.5746042,4.947 27.7219761,5.00752773 27.83777,5.128585 C27.9535639,5.24964227 28.01146,5.39964577 28.01146,5.5786 L28.01146,11.54722 L28.01146,11.54722 Z M36.7746931,11.1240091 L40.7334411,5.21543 C40.8702884,5.01542233 41.04924,4.92068328 41.2703011,4.93121 C41.4387286,4.94173672 41.5861005,5.00489609 41.7124211,5.12069 C41.8387417,5.23648391 41.9019011,5.38911905 41.9019011,5.5786 L41.9019011,15.35261 C41.9019011,15.5315642 41.8387417,15.6841994 41.7124211,15.81052 C41.5861005,15.9368406 41.428202,16 41.2387211,16 C41.0492402,16 40.8913417,15.9368406 40.7650211,15.81052 C40.6387005,15.6841994 40.5755411,15.5315642 40.5755411,15.35261 L40.5755411,7.45807835 L37.2438511,12.5262 C37.1806908,12.599887 37.1043732,12.6630464 37.0148961,12.71568 C36.925419,12.7683136 36.8333116,12.79463 36.7385711,12.79463 C36.6438306,12.79463 36.5490916,12.7683136 36.4543511,12.71568 C36.3596106,12.6630464 36.2806614,12.599887 36.2175011,12.5262 L32.8700211,7.36849476 L32.8700211,15.35261 C32.8700211,15.5315642 32.812125,15.6841994 32.6963311,15.81052 C32.5805372,15.9368406 32.4331653,16 32.2542111,16 C32.0752569,16 31.9305167,15.9368406 31.8199861,15.81052 C31.7094555,15.6841994 31.6541911,15.5315642 31.6541911,15.35261 L31.6541911,5.5786 C31.6541911,5.41017249 31.7147188,5.26016899 31.8357761,5.128585 C31.9568334,4.99700101 32.1121002,4.93121 32.3015811,4.93121 C32.3963216,4.93121 32.4989555,4.9575264 32.6094861,5.01016 C32.7200167,5.0627936 32.8068608,5.13121625 32.8700211,5.21543 L36.7746931,11.1240091 L36.7746931,11.1240091 Z M45.0863162,11.02615 L50.0526772,11.02615 L50.0526772,10.89983 C50.021097,10.4682345 49.8816201,10.0971732 49.6342422,9.786635 C49.3868643,9.47609678 49.0842257,9.23661751 48.7263172,9.06819 C48.3684087,8.89976249 47.9947158,8.81555 47.6052272,8.81555 C47.2894256,8.81555 46.9762604,8.87081445 46.6657222,8.981345 C46.355184,9.09187555 46.0762301,9.2708271 45.8288522,9.518205 C45.5814743,9.7655829 45.3841013,10.0840114 45.2367272,10.4735 C45.1726675,10.6428006 45.1225306,10.8270169 45.0863162,11.02615 L45.0863162,11.02615 Z M45.0220733,12.11566 C45.050306,12.6291661 45.1718581,13.0870726 45.3867322,13.48939 C45.6341101,13.9525656 45.978855,14.3183637 46.4209772,14.586795 C46.8630994,14.8552263 47.3736376,14.98944 47.9526072,14.98944 C48.3315691,14.98944 48.6578925,14.9420705 48.9315872,14.84733 C49.2052819,14.7525895 49.4394979,14.6341657 49.6342422,14.492055 C49.8289865,14.3499443 49.9947798,14.2052041 50.1316272,14.05783 C50.2684745,13.9630895 50.4053198,13.91572 50.5421672,13.91572 C50.6895413,13.91572 50.81586,13.9683528 50.9211272,14.07362 C51.0263944,14.1788872 51.0790272,14.3052059 51.0790272,14.45258 C51.0790272,14.6315342 50.9948147,14.7894326 50.8263872,14.92628 C50.5211123,15.2526083 50.1184714,15.5394571 49.6184522,15.786835 C49.118433,16.0342129 48.5789468,16.1579 47.9999772,16.1579 C47.1578397,16.1579 46.4209804,15.9789485 45.7893772,15.62104 C45.157774,15.2631315 44.6682889,14.7710148 44.3209072,14.144675 C43.9735255,13.5183352 43.7998372,12.7946341 43.7998372,11.97355 C43.7998372,11.0577254 43.9814204,10.2761282 44.3445922,9.628735 C44.707764,8.98134176 45.1788276,8.48659338 45.7577972,8.144475 C46.3367668,7.80235662 46.9525706,7.6313 47.6052272,7.6313 C48.099983,7.6313 48.5710466,7.72077577 49.0184322,7.89973 C49.4658178,8.07868423 49.8658271,8.33921662 50.2184722,8.681335 C50.5711173,9.02345338 50.8527028,9.43398927 51.0632372,9.912955 C51.2737716,10.3919207 51.3843005,10.9261437 51.3948272,11.51564 C51.3843005,11.6840675 51.3158778,11.8261761 51.1895572,11.94197 C51.0632366,12.0577639 50.9158647,12.11566 50.7474372,12.11566 L45.0220733,12.11566 L45.0220733,12.11566 Z" id="Up4Me"></path>
        </g>
    </g>
</svg>