<?xml version="1.0" encoding="UTF-8"?>
<svg width="13px" height="14px" viewBox="0 0 13 14" version="1.1" xmlns="http://www.w3.org/2000/svg" xmlns:xlink="http://www.w3.org/1999/xlink">
    <!-- Generator: Sketch 64 (93537) - https://sketch.com -->
    <title>calendar (1)</title>
    <desc>Created with Sketch.</desc>
    <g id="Up4me-" stroke="none" stroke-width="1" fill="none" fill-rule="evenodd">
        <g id="10.-Date-overzicht" transform="translate(-22.000000, -375.000000)" fill="#4A4A4A" fill-rule="nonzero">
            <g id="calendar-(1)" transform="translate(22.000000, 375.000000)">
                <path d="M12.6335815,1.58662111 C12.6316067,1.57853191 12.6262994,1.5721517 12.6237074,1.56451823 C12.6193875,1.55141601 12.6137099,1.53876952 12.606798,1.52669271 C12.5988987,1.51279298 12.5893948,1.49980469 12.5785333,1.48772785 C12.56977,1.47770181 12.5601427,1.46835938 12.5496514,1.45970052 C12.5369385,1.4497884 12.5229913,1.44124348 12.5081801,1.43406576 C12.495714,1.4271159 12.4825073,1.42119139 12.468807,1.41629233 C12.4523912,1.41150715 12.4353584,1.40831705 12.418202,1.40672201 C12.4077108,1.40387368 12.3969727,1.40159507 12.3861111,1.4 L11.1116075,1.4 C11.0464382,0.5877767 10.6381429,0 10.1111111,0 C9.5840793,0 9.17578398,0.5877767 9.11061471,1.4 L8.58382974,1.4 C8.51866047,0.5877767 8.11036514,0 7.58333333,0 C7.05630152,0 6.6480062,0.5877767 6.58283693,1.4 L6.05605196,1.4 C5.99088269,0.5877767 5.58258736,0 5.05555556,0 C4.52852375,0 4.12022842,0.5877767 4.05505915,1.4 L3.52827418,1.4 C3.46310491,0.5877767 3.05480959,0 2.52777778,0 C2.00074597,0 1.59245065,0.5877767 1.52728137,1.4 L0.252777778,1.4 C0.11318223,1.4 0,1.5044759 0,1.63333333 L0,13.7666667 C0,13.8955241 0.11318223,14 0.252777778,14 L12.3861111,14 C12.5257067,14 12.6388889,13.8955241 12.6388889,13.7666667 L12.6388889,13.0666667 L12.6335815,1.58662111 Z M10.1111111,0.466666667 C10.2936591,0.466666667 10.5484117,0.824186183 10.6045709,1.4 L9.61863876,1.4 C9.67381048,0.824186183 9.92856309,0.466666667 10.1111111,0.466666667 Z M7.58333333,0.466666667 C7.76588136,0.466666667 8.02063396,0.824186183 8.07679309,1.4 L7.09086099,1.4 C7.14603271,0.824186183 7.40078531,0.466666667 7.58333333,0.466666667 Z M5.05555556,0.466666667 C5.23810358,0.466666667 5.49285618,0.824186183 5.54901532,1.4 L4.56308321,1.4 C4.61825493,0.824186183 4.87300753,0.466666667 5.05555556,0.466666667 Z M2.52777778,0.466666667 C2.7103258,0.466666667 2.9650784,0.824186183 3.02123754,1.4 L2.03530543,1.4 C2.09047715,0.824186183 2.34522976,0.466666667 2.52777778,0.466666667 Z M0.505555556,1.86666667 L1.52728137,1.86666667 C1.59245065,2.67888997 2.00074597,3.26666667 2.52777778,3.26666667 C2.66737333,3.26666667 2.78055556,3.16219076 2.78055556,3.03333333 C2.78055556,2.9044759 2.66737333,2.8 2.52777778,2.8 C2.34522976,2.8 2.09047715,2.44248048 2.03431802,1.86666667 L4.05505915,1.86666667 C4.12109239,2.67888997 4.52852375,3.26666667 5.05555556,3.26666667 C5.1951511,3.26666667 5.30833333,3.16219076 5.30833333,3.03333333 C5.30833333,2.9044759 5.1951511,2.8 5.05555556,2.8 C4.87300753,2.8 4.61825493,2.44248048 4.5620958,1.86666667 L6.58283693,1.86666667 C6.64887016,2.67888997 7.05630152,3.26666667 7.58333333,3.26666667 C7.72292888,3.26666667 7.83611111,3.16219076 7.83611111,3.03333333 C7.83611111,2.9044759 7.72292888,2.8 7.58333333,2.8 C7.40078531,2.8 7.14603271,2.44248048 7.08987357,1.86666667 L9.11061471,1.86666667 C9.17664794,2.67888997 9.5840793,3.26666667 10.1111111,3.26666667 C10.2507067,3.26666667 10.3638889,3.16219076 10.3638889,3.03333333 C10.3638889,2.9044759 10.2507067,2.8 10.1111111,2.8 C9.92856309,2.8 9.67381048,2.44248048 9.61765135,1.86666667 L12.1333333,1.86666667 L12.1333333,4.2 L0.505555556,4.2 L0.505555556,1.86666667 Z M12.1333333,13.5333333 L0.505555556,13.5333333 L0.505555556,4.66666667 L12.1333333,4.66666667 L12.1333333,13.5333333 Z" id="Shape"></path>
                <path d="M5.56111111,8.4 L4.55,8.4 C4.41040445,8.4 4.29722222,8.5044759 4.29722222,8.63333333 L4.29722222,9.56666667 C4.29722222,9.6955241 4.41040445,9.8 4.55,9.8 L5.56111111,9.8 C5.70070666,9.8 5.81388889,9.6955241 5.81388889,9.56666667 L5.81388889,8.63333333 C5.81388889,8.5044759 5.70070666,8.4 5.56111111,8.4 Z M5.30833333,9.33333333 L4.80277778,9.33333333 L4.80277778,8.86666667 L5.30833333,8.86666667 L5.30833333,9.33333333 Z" id="Shape"></path>
                <path d="M8.08888889,8.4 L7.07777778,8.4 C6.93818223,8.4 6.825,8.5044759 6.825,8.63333333 L6.825,9.56666667 C6.825,9.6955241 6.93818223,9.8 7.07777778,9.8 L8.08888889,9.8 C8.22848444,9.8 8.34166667,9.6955241 8.34166667,9.56666667 L8.34166667,8.63333333 C8.34166667,8.5044759 8.22848444,8.4 8.08888889,8.4 Z M7.83611111,9.33333333 L7.33055556,9.33333333 L7.33055556,8.86666667 L7.83611111,8.86666667 L7.83611111,9.33333333 Z" id="Shape"></path>
                <path d="M3.03333333,8.4 L2.02222222,8.4 C1.88262667,8.4 1.76944444,8.5044759 1.76944444,8.63333333 L1.76944444,9.56666667 C1.76944444,9.6955241 1.88262667,9.8 2.02222222,9.8 L3.03333333,9.8 C3.17292888,9.8 3.28611111,9.6955241 3.28611111,9.56666667 L3.28611111,8.63333333 C3.28611111,8.5044759 3.17292888,8.4 3.03333333,8.4 Z M2.78055556,9.33333333 L2.275,9.33333333 L2.275,8.86666667 L2.78055556,8.86666667 L2.78055556,9.33333333 Z" id="Shape"></path>
                <path d="M5.56111111,10.7333333 L4.55,10.7333333 C4.41040445,10.7333333 4.29722222,10.8378092 4.29722222,10.9666667 L4.29722222,11.9 C4.29722222,12.0288574 4.41040445,12.1333333 4.55,12.1333333 L5.56111111,12.1333333 C5.70070666,12.1333333 5.81388889,12.0288574 5.81388889,11.9 L5.81388889,10.9666667 C5.81388889,10.8378092 5.70070666,10.7333333 5.56111111,10.7333333 Z M5.30833333,11.6666667 L4.80277778,11.6666667 L4.80277778,11.2 L5.30833333,11.2 L5.30833333,11.6666667 Z" id="Shape"></path>
                <path d="M8.08888889,10.7333333 L7.07777778,10.7333333 C6.93818223,10.7333333 6.825,10.8378092 6.825,10.9666667 L6.825,11.9 C6.825,12.0288574 6.93818223,12.1333333 7.07777778,12.1333333 L8.08888889,12.1333333 C8.22848444,12.1333333 8.34166667,12.0288574 8.34166667,11.9 L8.34166667,10.9666667 C8.34166667,10.8378092 8.22848444,10.7333333 8.08888889,10.7333333 Z M7.83611111,11.6666667 L7.33055556,11.6666667 L7.33055556,11.2 L7.83611111,11.2 L7.83611111,11.6666667 Z" id="Shape"></path>
                <path d="M3.03333333,10.7333333 L2.02222222,10.7333333 C1.88262667,10.7333333 1.76944444,10.8378092 1.76944444,10.9666667 L1.76944444,11.9 C1.76944444,12.0288574 1.88262667,12.1333333 2.02222222,12.1333333 L3.03333333,12.1333333 C3.17292888,12.1333333 3.28611111,12.0288574 3.28611111,11.9 L3.28611111,10.9666667 C3.28611111,10.8378092 3.17292888,10.7333333 3.03333333,10.7333333 Z M2.78055556,11.6666667 L2.275,11.6666667 L2.275,11.2 L2.78055556,11.2 L2.78055556,11.6666667 Z" id="Shape"></path>
                <path d="M5.56111111,6.06666667 L4.55,6.06666667 C4.41040445,6.06666667 4.29722222,6.17114257 4.29722222,6.3 L4.29722222,7.23333333 C4.29722222,7.36219076 4.41040445,7.46666667 4.55,7.46666667 L5.56111111,7.46666667 C5.70070666,7.46666667 5.81388889,7.36219076 5.81388889,7.23333333 L5.81388889,6.3 C5.81388889,6.17114257 5.70070666,6.06666667 5.56111111,6.06666667 Z M5.30833333,7 L4.80277778,7 L4.80277778,6.53333333 L5.30833333,6.53333333 L5.30833333,7 Z" id="Shape"></path>
                <path d="M8.08888889,6.06666667 L7.07777778,6.06666667 C6.93818223,6.06666667 6.825,6.17114257 6.825,6.3 L6.825,7.23333333 C6.825,7.36219076 6.93818223,7.46666667 7.07777778,7.46666667 L8.08888889,7.46666667 C8.22848444,7.46666667 8.34166667,7.36219076 8.34166667,7.23333333 L8.34166667,6.3 C8.34166667,6.17114257 8.22848444,6.06666667 8.08888889,6.06666667 Z M7.83611111,7 L7.33055556,7 L7.33055556,6.53333333 L7.83611111,6.53333333 L7.83611111,7 Z" id="Shape"></path>
                <path d="M10.6166667,8.4 L9.60555556,8.4 C9.46596001,8.4 9.35277778,8.5044759 9.35277778,8.63333333 L9.35277778,9.56666667 C9.35277778,9.6955241 9.46596001,9.8 9.60555556,9.8 L10.6166667,9.8 C10.7562622,9.8 10.8694444,9.6955241 10.8694444,9.56666667 L10.8694444,8.63333333 C10.8694444,8.5044759 10.7562622,8.4 10.6166667,8.4 Z M10.3638889,9.33333333 L9.85833333,9.33333333 L9.85833333,8.86666667 L10.3638889,8.86666667 L10.3638889,9.33333333 Z" id="Shape"></path>
                <path d="M10.6166667,10.7333333 L9.60555556,10.7333333 C9.46596001,10.7333333 9.35277778,10.8378092 9.35277778,10.9666667 L9.35277778,11.9 C9.35277778,12.0288574 9.46596001,12.1333333 9.60555556,12.1333333 L10.6166667,12.1333333 C10.7562622,12.1333333 10.8694444,12.0288574 10.8694444,11.9 L10.8694444,10.9666667 C10.8694444,10.8378092 10.7562622,10.7333333 10.6166667,10.7333333 Z M10.3638889,11.6666667 L9.85833333,11.6666667 L9.85833333,11.2 L10.3638889,11.2 L10.3638889,11.6666667 Z" id="Shape"></path>
                <path d="M10.6166667,6.06666667 L9.60555556,6.06666667 C9.46596001,6.06666667 9.35277778,6.17114257 9.35277778,6.3 L9.35277778,7.23333333 C9.35277778,7.36219076 9.46596001,7.46666667 9.60555556,7.46666667 L10.6166667,7.46666667 C10.7562622,7.46666667 10.8694444,7.36219076 10.8694444,7.23333333 L10.8694444,6.3 C10.8694444,6.17114257 10.7562622,6.06666667 10.6166667,6.06666667 Z M10.3638889,7 L9.85833333,7 L9.85833333,6.53333333 L10.3638889,6.53333333 L10.3638889,7 Z" id="Shape"></path>
                <path d="M3.03333333,6.06666667 L2.02222222,6.06666667 C1.88262667,6.06666667 1.76944444,6.17114257 1.76944444,6.3 L1.76944444,7.23333333 C1.76944444,7.36219076 1.88262667,7.46666667 2.02222222,7.46666667 L3.03333333,7.46666667 C3.17292888,7.46666667 3.28611111,7.36219076 3.28611111,7.23333333 L3.28611111,6.3 C3.28611111,6.17114257 3.17292888,6.06666667 3.03333333,6.06666667 Z M2.78055556,7 L2.275,7 L2.275,6.53333333 L2.78055556,6.53333333 L2.78055556,7 Z" id="Shape"></path>
            </g>
        </g>
    </g>
</svg>