<?xml version="1.0" encoding="UTF-8"?>
<svg width="13px" height="15px" viewBox="0 0 13 15" version="1.1" xmlns="http://www.w3.org/2000/svg" xmlns:xlink="http://www.w3.org/1999/xlink">
    <!-- Generator: Sketch 64 (93537) - https://sketch.com -->
    <title>Group 5 Copy</title>
    <desc>Created with Sketch.</desc>
    <g id="Up4me-" stroke="none" stroke-width="1" fill="none" fill-rule="evenodd">
        <g id="10.-Date-overzicht" transform="translate(-19.000000, -430.000000)" stroke="#4A4A4A" stroke-width="0.80510976">
            <g id="Group-5-Copy" transform="translate(20.000000, 431.000000)">
                <g id="Group-4">
                    <path d="M5.5,-7.10542736e-15 C8.53766038,-7.10542736e-15 11,2.29509221 11,5.12642816 C11,7.01398545 9.16666667,9.97184273 5.5,14 C1.83333333,9.97184273 -2.13162821e-14,7.01398545 -2.13162821e-14,5.12642816 C-2.13162821e-14,2.29509221 2.46233962,-7.10542736e-15 5.5,-7.10542736e-15 Z M5.51592845,2.38098258 C4.10515753,2.38098258 2.96150174,3.44695881 2.96150174,4.76190712 C2.96150174,6.07685544 4.10515753,7.14283166 5.51592845,7.14283166 C6.92669936,7.14283166 8.07035515,6.07685544 8.07035515,4.76190712 C8.07035515,3.44695881 6.92669936,2.38098258 5.51592845,2.38098258 Z" id="Combined-Shape"></path>
                </g>
            </g>
        </g>
    </g>
</svg>