<?xml version="1.0" encoding="UTF-8"?>
<svg width="15px" height="15px" viewBox="0 0 15 15" version="1.1" xmlns="http://www.w3.org/2000/svg" xmlns:xlink="http://www.w3.org/1999/xlink">
    <!-- Generator: Sketch 64 (93537) - https://sketch.com -->
    <title>phone</title>
    <desc>Created with Sketch.</desc>
    <g id="Up4me-" stroke="none" stroke-width="1" fill="none" fill-rule="evenodd">
        <g id="4.3.4A-Instellingen---Help-&amp;-FAQ" transform="translate(-21.000000, -934.000000)" fill="#000000" fill-rule="nonzero">
            <g id="phone" transform="translate(21.000000, 934.000000)">
                <path d="M13.7963703,9.84578125 C12.8780133,9.84578125 11.9762969,9.70214844 11.121807,9.41976562 C10.6957925,9.27449219 10.2107547,9.38722656 9.9328257,9.67042969 L8.24622853,10.9436328 C6.29025706,9.89953125 5.08541644,8.69507812 4.05557538,6.75378906 L5.29131435,5.11113281 C5.6123682,4.79050781 5.72752415,4.32214844 5.58955576,3.88269531 C5.30596274,3.02371094 5.16190062,2.12242187 5.16190062,1.20367187 C5.16193968,0.539960938 4.62198015,0 3.95831,0 L1.20359062,0 C0.539959531,0 0,0.539960938 0,1.20359375 C0,8.81105469 6.18896826,15 13.7963703,15 C14.4600405,15 15,14.4600391 15,13.7963672 L15,11.049375 C15,10.3857422 14.4600014,9.84578125 13.7963703,9.84578125 Z M14.1666428,13.7964063 C14.1666428,14.0006641 14.0006276,14.1666797 13.7963703,14.1666797 C6.64834206,14.1666797 0.833357205,8.35164062 0.833357205,1.20363281 C0.833357205,0.999375 0.999372397,0.833359375 1.20362968,0.833359375 L3.95834907,0.833359375 C4.16260635,0.833359375 4.32862154,0.999375 4.32862154,1.20363281 C4.32862154,2.21152344 4.48690238,3.20070312 4.79655001,4.1378125 C4.8396749,4.27617187 4.80467499,4.419375 4.66471441,4.56507812 L3.23241346,6.46199219 C3.13639808,6.58933594 3.12132,6.75984375 3.19335106,6.90183594 C4.36237145,9.19960937 5.78287557,10.6201172 8.09689298,11.8058203 C8.23767386,11.8794531 8.41021247,11.8640234 8.53798558,11.7675781 L10.4784883,10.2974609 C10.576535,10.1994141 10.7234486,10.1644141 10.8561045,10.2095703 C11.7996958,10.52125 12.7888729,10.6791406 13.7963703,10.6791406 C14.0006276,10.6791406 14.1666428,10.8451563 14.1666428,11.0494141 L14.1666428,13.7964063 Z" id="Shape"></path>
            </g>
        </g>
    </g>
</svg>